<svg width="24" height="24" viewBox="0 0 24 24" fill="none" xmlns="http://www.w3.org/2000/svg">
<g clip-path="url(#clip0_2356_1684)">
<path d="M12 24C18.6274 24 24 18.6274 24 12C24 5.37258 18.6274 0 12 0C5.37258 0 0 5.37258 0 12C0 18.6274 5.37258 24 12 24Z" fill="#95BEEF"/>
<mask id="mask0_2356_1684" style="mask-type:alpha" maskUnits="userSpaceOnUse" x="0" y="0" width="24" height="24">
<path d="M12 24C18.6274 24 24 18.6274 24 12C24 5.37258 18.6274 0 12 0C5.37258 0 0 5.37258 0 12C0 18.6274 5.37258 24 12 24Z" fill="#95BEEF"/>
</mask>
<g mask="url(#mask0_2356_1684)">
<path d="M1.35889 15.5676C3.12206 14.3243 6.6484 10.8973 6.6484 7.13513" stroke="#555151" stroke-width="1.2973" stroke-linecap="round"/>
<path d="M11.938 15.5676C13.7012 14.3243 17.2275 10.8973 17.2275 7.13513" stroke="#555151" stroke-width="1.2973" stroke-linecap="round"/>
<path d="M11.9384 15.5676C10.1753 14.3243 6.64893 10.8973 6.64893 7.13513" stroke="#555151" stroke-width="1.2973" stroke-linecap="round"/>
<path d="M22.517 15.5676C20.7538 14.3243 17.2275 10.8973 17.2275 7.13513" stroke="#555151" stroke-width="1.2973" stroke-linecap="round"/>
<path d="M2.1084 15.5676C2.1084 15.9258 2.39881 16.2162 2.75705 16.2162C3.11528 16.2162 3.40569 15.9258 3.40569 15.5676H2.1084ZM2.1084 14.4324V15.5676H3.40569V14.4324H2.1084Z" fill="#555151"/>
<path d="M4.70264 15.5675C4.70264 15.9258 4.99305 16.2162 5.35129 16.2162C5.70953 16.2162 5.99994 15.9258 5.99994 15.5675H4.70264ZM4.70264 11.3513V15.5675H5.99994V11.3513H4.70264Z" fill="#555151"/>
<path d="M7.29736 15.5676C7.29736 15.9258 7.58777 16.2162 7.94601 16.2162C8.30424 16.2162 8.59465 15.9258 8.59465 15.5676H7.29736ZM7.29736 11.027V15.5676H8.59465V11.027H7.29736Z" fill="#555151"/>
<path d="M9.89209 15.5676C9.89209 15.9258 10.1825 16.2162 10.5407 16.2162C10.899 16.2162 11.1894 15.9258 11.1894 15.5676H9.89209ZM9.89209 14.2703V15.5676H11.1894V14.2703H9.89209Z" fill="#555151"/>
<path d="M12.687 15.5676C12.687 15.9258 12.9775 16.2162 13.3357 16.2162C13.6939 16.2162 13.9843 15.9258 13.9843 15.5676H12.687ZM12.687 14.4324V15.5676H13.9843V14.4324H12.687Z" fill="#555151"/>
<path d="M15.2817 15.5675C15.2817 15.9258 15.5721 16.2162 15.9303 16.2162C16.2886 16.2162 16.579 15.9258 16.579 15.5675H15.2817ZM15.2817 11.3513V15.5675H16.579V11.3513H15.2817Z" fill="#555151"/>
<path d="M17.8765 15.5676C17.8765 15.9258 18.1669 16.2162 18.5251 16.2162C18.8833 16.2162 19.1738 15.9258 19.1738 15.5676H17.8765ZM17.8765 11.027V15.5676H19.1738V11.027H17.8765Z" fill="#555151"/>
<path d="M20.4712 15.5676C20.4712 15.9258 20.7616 16.2162 21.1198 16.2162C21.4781 16.2162 21.7685 15.9258 21.7685 15.5676H20.4712ZM20.4712 14.2703V15.5676H21.7685V14.2703H20.4712Z" fill="#555151"/>
<path d="M24 16.2162H0V18.1621H24V16.2162Z" fill="#3A71B3" stroke="#555151" stroke-width="1.2973"/>
</g>
<path d="M12 23.75C18.4893 23.75 23.75 18.4893 23.75 12C23.75 5.51065 18.4893 0.25 12 0.25C5.51065 0.25 0.25 5.51065 0.25 12C0.25 18.4893 5.51065 23.75 12 23.75Z" stroke="#72A8E9" stroke-width="0.5"/>
</g>
<defs>
<clipPath id="clip0_2356_1684">
<rect width="24" height="24" fill="white"/>
</clipPath>
</defs>
</svg>
