<svg width="24" height="24" viewBox="0 0 24 24" fill="none" xmlns="http://www.w3.org/2000/svg">
<g clip-path="url(#clip0_2356_1666)">
<path d="M12 24C18.6274 24 24 18.6274 24 12C24 5.37258 18.6274 0 12 0C5.37258 0 0 5.37258 0 12C0 18.6274 5.37258 24 12 24Z" fill="#FAE849"/>
<path d="M8.27018 9.40545C8.53886 9.40545 8.75666 9.62325 8.75666 9.89193C8.75666 10.1606 8.53886 10.3784 8.27018 10.3784C8.0015 10.3784 7.78369 10.1606 7.78369 9.89193C7.78369 9.62325 8.0015 9.40545 8.27018 9.40545Z" fill="#BCAA1F"/>
<path d="M9.56754 7.45946C9.83622 7.45946 10.054 7.67727 10.054 7.94595C10.054 8.21463 9.83622 8.43243 9.56754 8.43243C9.29886 8.43243 9.08105 8.21463 9.08105 7.94595C9.08105 7.67727 9.29886 7.45946 9.56754 7.45946Z" fill="#BCAA1F"/>
<path d="M11.1891 8.75676C11.4578 8.75676 11.6756 8.97457 11.6756 9.24325C11.6756 9.51193 11.4578 9.72974 11.1891 9.72974C10.9204 9.72974 10.7026 9.51193 10.7026 9.24325C10.7026 8.97457 10.9204 8.75676 11.1891 8.75676Z" fill="#BCAA1F"/>
<path d="M11.9998 19.1352C15.5428 19.1352 18.4539 16.4299 18.7802 12.9723C18.8139 12.6157 18.5202 12.3243 18.162 12.3243H5.83766C5.47942 12.3243 5.18577 12.6157 5.21943 12.9723C5.54575 16.4299 8.45686 19.1352 11.9998 19.1352Z" fill="#BCAA1F"/>
<path d="M16.852 12.3243H18.4866C18.8448 12.3243 19.1383 12.6157 19.1062 12.9725C18.7787 16.6094 15.7222 19.4595 12.0001 19.4595C8.27796 19.4595 5.2215 16.6094 4.89401 12.9725C4.86188 12.6157 5.15538 12.3243 5.51361 12.3243H13.9979" stroke="#555151" stroke-width="1.2973" stroke-linecap="round"/>
<path d="M18.4866 10.3784C18.4866 6.99502 15.5825 4.86487 12.0001 4.86487C8.41777 4.86487 5.51367 6.99502 5.51367 10.3784" stroke="#555151" stroke-width="1.2973" stroke-linecap="round"/>
<path d="M12 23.75C18.4893 23.75 23.75 18.4893 23.75 12C23.75 5.51065 18.4893 0.25 12 0.25C5.51065 0.25 0.25 5.51065 0.25 12C0.25 18.4893 5.51065 23.75 12 23.75Z" stroke="#E7D651" stroke-width="0.5"/>
</g>
<defs>
<clipPath id="clip0_2356_1666">
<rect width="24" height="24" fill="white"/>
</clipPath>
</defs>
</svg>
