<svg width="24" height="24" viewBox="0 0 24 24" fill="none" xmlns="http://www.w3.org/2000/svg">
<g clip-path="url(#clip0_2356_1675)">
<path d="M12 24C18.6274 24 24 18.6274 24 12C24 5.37258 18.6274 0 12 0C5.37258 0 0 5.37258 0 12C0 18.6274 5.37258 24 12 24Z" fill="#F6AF7C"/>
<path d="M4 13.4198C4 8.92593 8.20339 7 12 7C15.5254 7 20 8.92593 20 13.4198C20 18.3951 15.7966 20 12 20C8.20339 20 4 18.3951 4 13.4198Z" fill="#D96817"/>
<path d="M20 13.4198C20 8.92593 15.5254 7 12 7C8.20339 7 4 8.92593 4 13.4198C4 18.3951 8.20339 20 12 20C14.722 20 17.6532 19.175 19.0943 16.8744" stroke="#555151" stroke-width="1.2973" stroke-linecap="round" stroke-linejoin="round"/>
<path d="M12.5468 5.10568C10.506 6.28389 10.476 8.28365 10.551 9.60541C10.5646 9.84612 10.83 9.98716 11.0388 9.86661L14.2313 8.02339C16.3593 6.79476 16.7051 4.43941 16.3241 3.296C16.2675 3.12607 16.0685 3.07238 15.9134 3.16194L12.5468 5.10568Z" fill="#555151"/>
<path d="M14.757 13.9459C15.0257 13.9459 15.2435 13.7281 15.2435 13.4594C15.2435 13.1907 15.0257 12.9729 14.757 12.9729C14.4883 12.9729 14.2705 13.1907 14.2705 13.4594C14.2705 13.7281 14.4883 13.9459 14.757 13.9459Z" fill="#F6AF7C"/>
<path d="M16.0539 15.8919C16.3225 15.8919 16.5404 15.674 16.5404 15.4054C16.5404 15.1367 16.3225 14.9189 16.0539 14.9189C15.7852 14.9189 15.5674 15.1367 15.5674 15.4054C15.5674 15.674 15.7852 15.8919 16.0539 15.8919Z" fill="#F6AF7C"/>
<path d="M17.6759 14.5946C17.9446 14.5946 18.1624 14.3768 18.1624 14.1081C18.1624 13.8394 17.9446 13.6216 17.6759 13.6216C17.4073 13.6216 17.1895 13.8394 17.1895 14.1081C17.1895 14.3768 17.4073 14.5946 17.6759 14.5946Z" fill="#F6AF7C"/>
<path d="M12 23.75C18.4893 23.75 23.75 18.4893 23.75 12C23.75 5.51065 18.4893 0.25 12 0.25C5.51065 0.25 0.25 5.51065 0.25 12C0.25 18.4893 5.51065 23.75 12 23.75Z" stroke="#F19858" stroke-width="0.5"/>
</g>
<defs>
<clipPath id="clip0_2356_1675">
<rect width="24" height="24" fill="white"/>
</clipPath>
</defs>
</svg>
