<svg width="89" height="40" viewBox="0 0 89 40" fill="none" xmlns="http://www.w3.org/2000/svg">
<path d="M85.1986 7.12029L5.80868 0.258337C4.15798 0.115662 2.70416 1.33816 2.56149 2.98886L0.258581 29.6325C0.115905 31.2832 1.3384 32.737 2.9891 32.8797L82.379 39.7417C84.0297 39.8843 85.4835 38.6618 85.6262 37.0111L87.9291 10.3675C88.0718 8.71678 86.8493 7.26296 85.1986 7.12029Z" fill="#565151"/>
<path d="M17.1903 22.4731C16.7752 23.2097 15.6006 23.532 14.7862 22.9694C13.3316 21.9593 12.1472 20.6348 11.4326 19.2516C10.4088 20.4238 8.87001 21.4416 7.26274 22.059C6.3387 22.4106 5.27371 21.8187 5.04466 21.0274C4.77254 20.0213 5.40684 19.0113 6.17034 18.8257C7.82069 18.4233 10.0094 16.835 10.2326 14.9868L10.6731 11.3589C10.7651 10.6068 11.6617 9.90346 12.5544 10.0109C13.4471 10.1184 14.1499 11.0151 14.0579 11.7672L13.6174 15.3951C13.3884 17.2901 15.1601 19.3102 16.5971 20.0858C17.3821 20.5039 17.7482 21.4983 17.1883 22.4731H17.1903ZM22.8265 16.0007L23.8093 16.1199C24.4259 16.1942 25.07 17.0127 24.9702 17.8352C24.8703 18.6557 24.0481 19.3219 23.4295 19.2457L22.4467 19.1266L21.2877 28.6642C21.1957 29.4163 20.3011 30.0962 19.4103 29.9888C18.5195 29.8813 17.8363 29.0119 17.9303 28.2344L19.8743 12.2381C19.9663 11.4859 20.8394 10.7806 21.7321 10.8881C22.6248 10.9955 23.3277 11.8923 23.2415 12.5995L22.8284 15.9988L22.8265 16.0007Z" fill="#F2F0EE"/>
<path d="M27.3912 25.2216C26.6916 25.2661 25.8707 24.566 25.817 23.771C25.7613 22.9529 26.4829 22.1773 27.1845 22.1328L43.4036 21.1019C44.1032 21.0575 44.9221 21.7344 44.9778 22.5525C45.0315 23.3475 44.3119 24.1463 43.6103 24.1907L37.1922 24.5989L37.4427 28.324C37.4944 29.0957 36.7311 29.9429 35.8685 29.997C34.982 30.0531 34.1114 29.3104 34.0597 28.5387L33.8093 24.8135L27.3912 25.2216ZM39.5893 13.8644C40.2671 13.8219 41.1059 14.4524 41.1596 15.2473C41.2152 16.0655 40.4599 16.7057 39.7603 16.7501L31.6865 17.2627L31.7362 17.9899L40.3247 17.4445C41.0244 17.4 41.8194 18.0789 41.8751 18.897C41.9308 19.7152 41.2311 20.4888 40.5076 20.5352L30.4025 21.1774C29.4464 21.2373 28.4526 20.4115 28.391 19.4811L27.9279 12.5782C27.8662 11.6479 28.7388 10.7021 29.6969 10.6422L39.7781 10.002C40.4778 9.95747 41.3245 10.6789 41.3782 11.497C41.4299 12.2688 40.6626 13.0482 40.0087 13.0888L31.444 13.6323L31.4937 14.3808L39.5913 13.8663L39.5893 13.8644Z" fill="#F2F0EE"/>
<path d="M58.962 11.7321C58.8753 11.0228 59.5497 10.1215 60.3842 10.0118C61.2413 9.90011 62.1078 10.5996 62.2001 11.354L64.1385 27.3876C64.2327 28.1655 63.5564 29.0433 62.6993 29.1549C61.863 29.2647 61.0002 28.5867 60.9079 27.8324L59.7249 18.0413L58.1407 18.249C57.7018 18.3059 57.1969 18.0237 56.8974 17.575C56.9125 20.4768 54.9609 22.9868 52.1673 23.3513C49.1326 23.749 46.241 21.4546 45.8567 18.2745C45.4725 15.0944 47.7235 12.1044 50.7583 11.7086C53.5292 11.3461 56.0214 13.2977 56.6921 16.0682C56.8974 15.5529 57.3175 15.1493 57.7583 15.0925L59.3425 14.8848L58.9601 11.7282L58.962 11.7321ZM51.1538 14.9612C49.8126 15.1375 48.8576 16.4699 49.0252 17.865C49.1966 19.2836 50.438 20.3064 51.7792 20.13C53.1638 19.9498 54.1226 18.6389 53.9512 17.2204C53.7817 15.8253 52.5384 14.779 51.1538 14.9612Z" fill="#F2F0EE"/>
<path d="M74.1344 16.2189L74.304 14.3001L68.7474 13.8317C68.1154 13.779 67.4315 13.0096 67.5028 12.2158C67.5702 11.4445 68.3813 10.7786 69.0576 10.8369L76.0361 11.4257C76.9628 11.5047 77.7893 12.4396 77.7065 13.367L77.3192 17.7332C77.2364 18.6587 76.2557 19.4657 75.3964 19.3924L70.2252 18.9559L70.0595 20.8296L73.5371 21.123C74.2828 21.1851 75.722 21.108 76.3308 20.9142C77.0803 20.6659 78.1959 21.1832 78.3943 22.0222C78.6294 22.9534 77.9859 23.8093 77.3077 24.0181C76.3713 24.3172 74.4427 24.242 73.2019 24.1385L68.3004 23.7247C67.3756 23.6457 66.5722 22.69 66.6531 21.7645L67.0384 17.4209C67.1193 16.5161 68.0769 15.7091 68.9574 15.7843L74.1286 16.2207L74.1344 16.2189ZM82.7737 28.6345C82.7082 29.3851 81.8508 30.0679 80.9915 29.9946C80.111 29.9193 79.4097 29.1048 79.4752 28.3561L80.8451 12.8986C80.9086 12.1706 81.7448 11.4633 82.6272 11.5385C83.4865 11.6119 84.2071 12.449 84.1435 13.177L82.7737 28.6345Z" fill="#F2F0EE"/>
</svg>
