<svg width="24" height="24" viewBox="0 0 24 24" fill="none" xmlns="http://www.w3.org/2000/svg">
<g clip-path="url(#clip0_2356_1704)">
<path d="M12 24C18.6274 24 24 18.6274 24 12C24 5.37258 18.6274 0 12 0C5.37258 0 0 5.37258 0 12C0 18.6274 5.37258 24 12 24Z" fill="#CAEE8F"/>
<mask id="mask0_2356_1704" style="mask-type:alpha" maskUnits="userSpaceOnUse" x="0" y="0" width="24" height="24">
<path d="M12 24C18.6274 24 24 18.6274 24 12C24 5.37258 18.6274 0 12 0C5.37258 0 0 5.37258 0 12C0 18.6274 5.37258 24 12 24Z" fill="#CAEE8F"/>
</mask>
<g mask="url(#mask0_2356_1704)">
<path d="M15.5678 20.7568C15.5678 18.7865 13.9705 17.1892 12.0002 17.1892C10.0299 17.1892 8.43262 18.7865 8.43262 20.7568V23.0271C8.43262 24.9974 10.0299 26.5946 12.0002 26.5946C13.9705 26.5946 15.5678 24.9974 15.5678 23.0271V20.7568Z" fill="#75983C"/>
<path d="M15.1822 20.0749V26.9189H18.4867V14.2703H5.51367V26.9189H8.81811V20.0749C8.81811 18.6948 10.0633 17.1892 12.0002 17.1892C13.9371 17.1892 15.1822 18.5693 15.1822 20.0749Z" stroke="#555151" stroke-width="1.2973" stroke-linejoin="round"/>
<path d="M19.4597 14.2703H4.54084C4.00348 14.2703 3.56787 13.8347 3.56787 13.2973V12.3244C3.56787 11.787 4.00348 11.3514 4.54084 11.3514H19.4597C19.9971 11.3514 20.4327 11.787 20.4327 12.3244V13.2973C20.4327 13.8347 19.9971 14.2703 19.4597 14.2703Z" stroke="#555151" stroke-width="1.2973" stroke-linejoin="round"/>
<path d="M17.1892 11.3514H6.81086C6.27351 11.3514 5.83789 10.9157 5.83789 10.3784V9.40541C5.83789 8.86805 6.27351 8.43243 6.81086 8.43243H17.1892C17.7266 8.43243 18.1622 8.86805 18.1622 9.40541V10.3784C18.1622 10.9157 17.7266 11.3514 17.1892 11.3514Z" fill="#75983C" stroke="#555151" stroke-width="1.2973" stroke-linejoin="round"/>
<path d="M15.2432 8.43241H8.75666C8.21931 8.43241 7.78369 7.99679 7.78369 7.45944V6.48646C7.78369 5.9491 8.21931 5.51349 8.75666 5.51349H15.2432C15.7805 5.51349 16.2161 5.9491 16.2161 6.48646V7.45943C16.2161 7.99679 15.7805 8.43241 15.2432 8.43241Z" stroke="#555151" stroke-width="1.2973" stroke-linejoin="round"/>
</g>
<path d="M12 23.75C18.4893 23.75 23.75 18.4893 23.75 12C23.75 5.51065 18.4893 0.25 12 0.25C5.51065 0.25 0.25 5.51065 0.25 12C0.25 18.4893 5.51065 23.75 12 23.75Z" stroke="#B6DD77" stroke-width="0.5"/>
</g>
<defs>
<clipPath id="clip0_2356_1704">
<rect width="24" height="24" fill="white"/>
</clipPath>
</defs>
</svg>
